
<svg viewBox="0 0 448 448" xmlns="http://www.w3.org/2000/svg"><path d="M448,352 L448,416 C448,433.673 433.673,448 416,448 L32,448 C14.327,448 1.42108547e-14,433.673 1.42108547e-14,416 L1.42108547e-14,352 C1.42108547e-14,334.327 14.327,320 32,320 L416,320 C433.673,320 448,334.327 448,352 Z M48.053,288 L399.939,288 C441.59,288 463.52,238.326 435.322,207.565 L259.383,15.558 C240.369,-5.185 207.632,-5.186 188.616,15.558 L12.67,207.565 C-15.475,238.268 6.324,288 48.053,288 Z" transform="translate(223.999953, 224.000187) rotate(-270.000000) translate(-223.999953, -224.000187)"></path></svg>